<?xml version="1.0" encoding="UTF-8"?>
<svg xmlns="http://www.w3.org/2000/svg" xmlns:xlink="http://www.w3.org/1999/xlink" width="515pt" height="515pt" viewBox="0 0 515 515" version="1.1">
<g id="surface6317">
<path style="fill:none;stroke-width:2;stroke-linecap:butt;stroke-linejoin:round;stroke:rgb(0%,0%,0%);stroke-opacity:1;stroke-miterlimit:10;" d="M 192 768 L 192 640 " transform="matrix(1,0,0,-1,-63,769)"/>
<path style="fill:none;stroke-width:2;stroke-linecap:butt;stroke-linejoin:round;stroke:rgb(0%,0%,0%);stroke-opacity:1;stroke-miterlimit:10;" d="M 192 640 L 576 640 " transform="matrix(1,0,0,-1,-63,769)"/>
<path style="fill:none;stroke-width:2;stroke-linecap:butt;stroke-linejoin:round;stroke:rgb(0%,0%,0%);stroke-opacity:1;stroke-miterlimit:10;" d="M 192 384 L 576 384 " transform="matrix(1,0,0,-1,-63,769)"/>
<path style="fill:none;stroke-width:2;stroke-linecap:butt;stroke-linejoin:round;stroke:rgb(0%,0%,0%);stroke-opacity:1;stroke-miterlimit:10;" d="M 192 384 L 192 256 " transform="matrix(1,0,0,-1,-63,769)"/>
<path style="fill:none;stroke-width:2;stroke-linecap:butt;stroke-linejoin:round;stroke:rgb(0%,0%,0%);stroke-opacity:1;stroke-miterlimit:10;" d="M 64 384 L 64 256 " transform="matrix(1,0,0,-1,-63,769)"/>
<path style="fill:none;stroke-width:2;stroke-linecap:butt;stroke-linejoin:round;stroke:rgb(0%,0%,0%);stroke-opacity:1;stroke-miterlimit:10;" d="M 64 768 L 64 640 " transform="matrix(1,0,0,-1,-63,769)"/>
<path style="fill:none;stroke-width:2;stroke-linecap:butt;stroke-linejoin:round;stroke:rgb(82.7%,82.7%,82.7%);stroke-opacity:1;stroke-dasharray:4;stroke-miterlimit:10;" d="M 96 256 L 96 768 " transform="matrix(1,0,0,-1,-63,769)"/>
<path style="fill-rule:evenodd;fill:rgb(82.7%,82.7%,82.7%);fill-opacity:1;stroke-width:2;stroke-linecap:butt;stroke-linejoin:round;stroke:rgb(82.7%,82.7%,82.7%);stroke-opacity:1;stroke-miterlimit:10;" d="M 96 768 L 93.667969 761 L 98.332031 761 Z M 96 768 " transform="matrix(1,0,0,-1,-63,769)"/>
<path style="fill:none;stroke-width:2;stroke-linecap:butt;stroke-linejoin:round;stroke:rgb(82.7%,82.7%,82.7%);stroke-opacity:1;stroke-dasharray:4;stroke-miterlimit:10;" d="M 160 256 L 160 768 " transform="matrix(1,0,0,-1,-63,769)"/>
<path style="fill-rule:evenodd;fill:rgb(82.7%,82.7%,82.7%);fill-opacity:1;stroke-width:2;stroke-linecap:butt;stroke-linejoin:round;stroke:rgb(82.7%,82.7%,82.7%);stroke-opacity:1;stroke-miterlimit:10;" d="M 160 768 L 157.667969 761 L 162.332031 761 Z M 160 768 " transform="matrix(1,0,0,-1,-63,769)"/>
<path style="fill:none;stroke-width:2;stroke-linecap:butt;stroke-linejoin:round;stroke:rgb(82.7%,82.7%,82.7%);stroke-opacity:1;stroke-dasharray:4;stroke-miterlimit:10;" d="M 192 416 L 576 416 " transform="matrix(1,0,0,-1,-63,769)"/>
<path style="fill-rule:evenodd;fill:rgb(82.7%,82.7%,82.7%);fill-opacity:1;stroke-width:2;stroke-linecap:butt;stroke-linejoin:round;stroke:rgb(82.7%,82.7%,82.7%);stroke-opacity:1;stroke-miterlimit:10;" d="M 576 416 L 569 418.332031 L 569 413.667969 Z M 576 416 " transform="matrix(1,0,0,-1,-63,769)"/>
<path style="fill:none;stroke-width:2;stroke-linecap:butt;stroke-linejoin:round;stroke:rgb(82.7%,82.7%,82.7%);stroke-opacity:1;stroke-dasharray:4;stroke-miterlimit:10;" d="M 192 480 L 576 480 " transform="matrix(1,0,0,-1,-63,769)"/>
<path style="fill-rule:evenodd;fill:rgb(82.7%,82.7%,82.7%);fill-opacity:1;stroke-width:2;stroke-linecap:butt;stroke-linejoin:round;stroke:rgb(82.7%,82.7%,82.7%);stroke-opacity:1;stroke-miterlimit:10;" d="M 576 480 L 569 482.332031 L 569 477.667969 Z M 576 480 " transform="matrix(1,0,0,-1,-63,769)"/>
<path style="fill:none;stroke-width:2;stroke-linecap:butt;stroke-linejoin:round;stroke:rgb(82.7%,82.7%,82.7%);stroke-opacity:1;stroke-dasharray:4;stroke-miterlimit:10;" d="M 192 544 L 576 544 " transform="matrix(1,0,0,-1,-63,769)"/>
<path style="fill-rule:evenodd;fill:rgb(82.7%,82.7%,82.7%);fill-opacity:1;stroke-width:2;stroke-linecap:butt;stroke-linejoin:round;stroke:rgb(82.7%,82.7%,82.7%);stroke-opacity:1;stroke-miterlimit:10;" d="M 576 544 L 569 546.332031 L 569 541.667969 Z M 576 544 " transform="matrix(1,0,0,-1,-63,769)"/>
<path style="fill:none;stroke-width:2;stroke-linecap:butt;stroke-linejoin:round;stroke:rgb(82.7%,82.7%,82.7%);stroke-opacity:1;stroke-dasharray:4;stroke-miterlimit:10;" d="M 192 608 L 576 608 " transform="matrix(1,0,0,-1,-63,769)"/>
<path style="fill-rule:evenodd;fill:rgb(82.7%,82.7%,82.7%);fill-opacity:1;stroke-width:2;stroke-linecap:butt;stroke-linejoin:round;stroke:rgb(82.7%,82.7%,82.7%);stroke-opacity:1;stroke-miterlimit:10;" d="M 576 608 L 569 610.332031 L 569 605.667969 Z M 576 608 " transform="matrix(1,0,0,-1,-63,769)"/>
<path style="fill:none;stroke-width:2;stroke-linecap:butt;stroke-linejoin:round;stroke:rgb(0%,0%,100%);stroke-opacity:1;stroke-dasharray:4;stroke-miterlimit:10;" d="M 160 384 C 160 368 144 360 130.667969 353.332031 C 117.332031 346.667969 106.667969 341.332031 101.332031 334.667969 C 96 328 96 320 96 320 " transform="matrix(1,0,0,-1,-63,769)"/>
<path style="fill-rule:evenodd;fill:rgb(0%,0%,100%);fill-opacity:1;stroke-width:2;stroke-linecap:butt;stroke-linejoin:round;stroke:rgb(0%,0%,100%);stroke-opacity:1;stroke-miterlimit:10;" d="M 160 384 L 157.667969 377 L 162.332031 377 Z M 160 384 " transform="matrix(1,0,0,-1,-63,769)"/>
<path style="fill:none;stroke-width:2;stroke-linecap:butt;stroke-linejoin:round;stroke:rgb(0%,0%,100%);stroke-opacity:1;stroke-dasharray:4;stroke-miterlimit:10;" d="M 224 416 C 256 416 264 432 272 448 C 280 464 288 480 320 480 " transform="matrix(1,0,0,-1,-63,769)"/>
<path style="fill-rule:evenodd;fill:rgb(0%,0%,100%);fill-opacity:1;stroke-width:2;stroke-linecap:butt;stroke-linejoin:round;stroke:rgb(0%,0%,100%);stroke-opacity:1;stroke-miterlimit:10;" d="M 320 480 L 313 482.332031 L 313 477.667969 Z M 320 480 " transform="matrix(1,0,0,-1,-63,769)"/>
<path style="fill:none;stroke-width:2;stroke-linecap:butt;stroke-linejoin:round;stroke:rgb(0%,0%,100%);stroke-opacity:1;stroke-dasharray:4;stroke-miterlimit:10;" d="M 336 480 C 368 480 376 504 384 520 C 392 536 400 544 432 544 " transform="matrix(1,0,0,-1,-63,769)"/>
<path style="fill-rule:evenodd;fill:rgb(0%,0%,100%);fill-opacity:1;stroke-width:2;stroke-linecap:butt;stroke-linejoin:round;stroke:rgb(0%,0%,100%);stroke-opacity:1;stroke-miterlimit:10;" d="M 432 544 L 425 546.332031 L 425 541.667969 Z M 432 544 " transform="matrix(1,0,0,-1,-63,769)"/>
<path style="fill:none;stroke-width:2;stroke-linecap:butt;stroke-linejoin:round;stroke:rgb(0%,0%,100%);stroke-opacity:1;stroke-dasharray:4;stroke-miterlimit:10;" d="M 448 544 C 480 544 488 560 496 576 C 504 592 512 608 544 608 " transform="matrix(1,0,0,-1,-63,769)"/>
<path style="fill-rule:evenodd;fill:rgb(0%,0%,100%);fill-opacity:1;stroke-width:2;stroke-linecap:butt;stroke-linejoin:round;stroke:rgb(0%,0%,100%);stroke-opacity:1;stroke-miterlimit:10;" d="M 544 608 L 537 610.332031 L 537 605.667969 Z M 544 608 " transform="matrix(1,0,0,-1,-63,769)"/>
<path style="fill-rule:evenodd;fill:rgb(100%,100%,100%);fill-opacity:1;stroke-width:2;stroke-linecap:butt;stroke-linejoin:round;stroke:rgb(0%,0%,100%);stroke-opacity:1;stroke-miterlimit:10;" d="M 80 320 L 80 272 L 112 272 L 112 320 Z M 80 320 " transform="matrix(1,0,0,-1,-63,769)"/>
<path style="fill:none;stroke-width:2;stroke-linecap:butt;stroke-linejoin:round;stroke:rgb(82.7%,82.7%,82.7%);stroke-opacity:1;stroke-dasharray:4;stroke-miterlimit:10;" d="M 64 608 L 192 608 " transform="matrix(1,0,0,-1,-63,769)"/>
<path style="fill:none;stroke-width:2;stroke-linecap:butt;stroke-linejoin:round;stroke:rgb(82.7%,82.7%,82.7%);stroke-opacity:1;stroke-dasharray:4;stroke-miterlimit:10;" d="M 64 544 L 192 544 " transform="matrix(1,0,0,-1,-63,769)"/>
<path style="fill:none;stroke-width:2;stroke-linecap:butt;stroke-linejoin:round;stroke:rgb(82.7%,82.7%,82.7%);stroke-opacity:1;stroke-dasharray:4;stroke-miterlimit:10;" d="M 64 480 L 192 480 " transform="matrix(1,0,0,-1,-63,769)"/>
<path style="fill:none;stroke-width:2;stroke-linecap:butt;stroke-linejoin:round;stroke:rgb(82.7%,82.7%,82.7%);stroke-opacity:1;stroke-dasharray:4;stroke-miterlimit:10;" d="M 64 416 L 192 416 " transform="matrix(1,0,0,-1,-63,769)"/>
<path style="fill:none;stroke-width:2;stroke-linecap:butt;stroke-linejoin:round;stroke:rgb(0%,0%,100%);stroke-opacity:1;stroke-dasharray:4;stroke-miterlimit:10;" d="M 160 384 C 160 405.332031 170.667969 416 192 416 " transform="matrix(1,0,0,-1,-63,769)"/>
<path style="fill-rule:evenodd;fill:rgb(0%,0%,100%);fill-opacity:1;stroke-width:2;stroke-linecap:butt;stroke-linejoin:round;stroke:rgb(0%,0%,100%);stroke-opacity:1;stroke-miterlimit:10;" d="M 192 416 L 185 418.332031 L 185 413.667969 Z M 192 416 " transform="matrix(1,0,0,-1,-63,769)"/>
</g>
</svg>
