<?xml version="1.0" encoding="UTF-8"?>
<svg xmlns="http://www.w3.org/2000/svg" xmlns:xlink="http://www.w3.org/1999/xlink" width="485pt" height="485pt" viewBox="0 0 485 485" version="1.1">
<g id="surface3937">
<path style="fill:none;stroke-width:2;stroke-linecap:butt;stroke-linejoin:round;stroke:rgb(0%,0%,0%);stroke-opacity:1;stroke-miterlimit:10;" d="M 128 576 L 128 384 " transform="matrix(1,0,0,-1,-92,612)"/>
<path style="fill:none;stroke-width:2;stroke-linecap:butt;stroke-linejoin:round;stroke:rgb(0%,0%,0%);stroke-opacity:1;stroke-miterlimit:10;" d="M 128 384 L 320 384 " transform="matrix(1,0,0,-1,-92,612)"/>
<path style="fill:none;stroke-width:2;stroke-linecap:butt;stroke-linejoin:round;stroke:rgb(0%,0%,0%);stroke-opacity:1;stroke-miterlimit:10;" d="M 320 384 L 320 576 " transform="matrix(1,0,0,-1,-92,612)"/>
<path style="fill:none;stroke-width:2;stroke-linecap:butt;stroke-linejoin:round;stroke:rgb(0%,0%,0%);stroke-opacity:1;stroke-miterlimit:10;" d="M 320 576 L 128 576 " transform="matrix(1,0,0,-1,-92,612)"/>
<path style="fill:none;stroke-width:2;stroke-linecap:butt;stroke-linejoin:round;stroke:rgb(0%,0%,0%);stroke-opacity:1;stroke-miterlimit:10;" d="M 448 384 C 522.667969 384 565.332031 384 576 384 " transform="matrix(1,0,0,-1,-92,612)"/>
<path style="fill:none;stroke-width:2;stroke-linecap:butt;stroke-linejoin:round;stroke:rgb(0%,0%,0%);stroke-opacity:1;stroke-miterlimit:10;" d="M 448 256 L 576 256 " transform="matrix(1,0,0,-1,-92,612)"/>
<path style="fill:none;stroke-width:2;stroke-linecap:butt;stroke-linejoin:round;stroke:rgb(0%,0%,0%);stroke-opacity:1;stroke-miterlimit:10;" d="M 448 256 L 448 128 " transform="matrix(1,0,0,-1,-92,612)"/>
<path style="fill:none;stroke-width:2;stroke-linecap:butt;stroke-linejoin:round;stroke:rgb(0%,0%,0%);stroke-opacity:1;stroke-miterlimit:10;" d="M 320 256 L 320 128 " transform="matrix(1,0,0,-1,-92,612)"/>
<path style="fill:none;stroke-width:2;stroke-linecap:butt;stroke-linejoin:round;stroke:rgb(0%,0%,0%);stroke-opacity:1;stroke-miterlimit:10;" d="M 128 256 C 128 170.667969 128 128 128 128 " transform="matrix(1,0,0,-1,-92,612)"/>
<path style="fill:none;stroke-width:2;stroke-linecap:butt;stroke-linejoin:round;stroke:rgb(0%,0%,0%);stroke-opacity:1;stroke-miterlimit:10;" d="M 128 256 L 320 256 " transform="matrix(1,0,0,-1,-92,612)"/>
<path style="fill:none;stroke-width:2;stroke-linecap:butt;stroke-linejoin:round;stroke:rgb(0%,0%,0%);stroke-opacity:1;stroke-miterlimit:10;" d="M 448 576 L 448 384 " transform="matrix(1,0,0,-1,-92,612)"/>
<path style="fill:none;stroke-width:2;stroke-linecap:butt;stroke-linejoin:round;stroke:rgb(100%,64.7%,0%);stroke-opacity:1;stroke-miterlimit:10;" d="M 352 576 C 352 597.332031 341.332031 608 320 608 " transform="matrix(1,0,0,-1,-92,612)"/>
<path style="fill-rule:evenodd;fill:rgb(100%,64.7%,0%);fill-opacity:1;stroke-width:2;stroke-linecap:butt;stroke-linejoin:round;stroke:rgb(100%,64.7%,0%);stroke-opacity:1;stroke-miterlimit:10;" d="M 352 576 L 354.332031 583 L 349.667969 583 Z M 352 576 " transform="matrix(1,0,0,-1,-92,612)"/>
<path style="fill:none;stroke-width:2;stroke-linecap:butt;stroke-linejoin:round;stroke:rgb(100%,64.7%,0%);stroke-opacity:1;stroke-miterlimit:10;" d="M 320 608 L 128 608 " transform="matrix(1,0,0,-1,-92,612)"/>
<path style="fill-rule:evenodd;fill:rgb(100%,64.7%,0%);fill-opacity:1;stroke-width:2;stroke-linecap:butt;stroke-linejoin:round;stroke:rgb(100%,64.7%,0%);stroke-opacity:1;stroke-miterlimit:10;" d="M 320 608 L 313 610.332031 L 313 605.667969 Z M 320 608 " transform="matrix(1,0,0,-1,-92,612)"/>
<path style="fill:none;stroke-width:2;stroke-linecap:butt;stroke-linejoin:round;stroke:rgb(100%,64.7%,0%);stroke-opacity:1;stroke-miterlimit:10;" d="M 128 608 C 106.667969 608 96 597.332031 96 576 " transform="matrix(1,0,0,-1,-92,612)"/>
<path style="fill-rule:evenodd;fill:rgb(100%,64.7%,0%);fill-opacity:1;stroke-width:2;stroke-linecap:butt;stroke-linejoin:round;stroke:rgb(100%,64.7%,0%);stroke-opacity:1;stroke-miterlimit:10;" d="M 128 608 L 121 610.332031 L 121 605.667969 Z M 128 608 " transform="matrix(1,0,0,-1,-92,612)"/>
<path style="fill:none;stroke-width:2;stroke-linecap:butt;stroke-linejoin:round;stroke:rgb(100%,64.7%,0%);stroke-opacity:1;stroke-miterlimit:10;" d="M 96 576 L 96 384 " transform="matrix(1,0,0,-1,-92,612)"/>
<path style="fill-rule:evenodd;fill:rgb(100%,64.7%,0%);fill-opacity:1;stroke-width:2;stroke-linecap:butt;stroke-linejoin:round;stroke:rgb(100%,64.7%,0%);stroke-opacity:1;stroke-miterlimit:10;" d="M 96 576 L 93.667969 569 L 98.332031 569 Z M 96 576 " transform="matrix(1,0,0,-1,-92,612)"/>
<path style="fill:none;stroke-width:2;stroke-linecap:butt;stroke-linejoin:round;stroke:rgb(100%,64.7%,0%);stroke-opacity:1;stroke-miterlimit:10;" d="M 96 384 C 96 362.667969 106.667969 352 128 352 " transform="matrix(1,0,0,-1,-92,612)"/>
<path style="fill-rule:evenodd;fill:rgb(100%,64.7%,0%);fill-opacity:1;stroke-width:2;stroke-linecap:butt;stroke-linejoin:round;stroke:rgb(100%,64.7%,0%);stroke-opacity:1;stroke-miterlimit:10;" d="M 96 384 L 93.667969 377 L 98.332031 377 Z M 96 384 " transform="matrix(1,0,0,-1,-92,612)"/>
<path style="fill-rule:evenodd;fill:rgb(100%,100%,100%);fill-opacity:1;stroke-width:2;stroke-linecap:butt;stroke-linejoin:round;stroke:rgb(0%,0%,54.5%);stroke-opacity:1;stroke-miterlimit:10;" d="M 336 256 L 336 208 L 368 208 L 368 256 Z M 336 256 " transform="matrix(1,0,0,-1,-92,612)"/>
<path style="fill:none;stroke-width:2;stroke-linecap:butt;stroke-linejoin:round;stroke:rgb(100%,64.7%,0%);stroke-opacity:1;stroke-miterlimit:10;" d="M 352 256 C 352 320 341.332031 352 320 352 " transform="matrix(1,0,0,-1,-92,612)"/>
<path style="fill-rule:evenodd;fill:rgb(100%,64.7%,0%);fill-opacity:1;stroke-width:2;stroke-linecap:butt;stroke-linejoin:round;stroke:rgb(100%,64.7%,0%);stroke-opacity:1;stroke-miterlimit:10;" d="M 320 352 L 327 349.667969 L 327 354.332031 Z M 320 352 " transform="matrix(1,0,0,-1,-92,612)"/>
<path style="fill:none;stroke-width:2;stroke-linecap:butt;stroke-linejoin:round;stroke:rgb(100%,64.7%,0%);stroke-opacity:1;stroke-miterlimit:10;" d="M 320 352 L 128 352 " transform="matrix(1,0,0,-1,-92,612)"/>
<path style="fill-rule:evenodd;fill:rgb(100%,64.7%,0%);fill-opacity:1;stroke-width:2;stroke-linecap:butt;stroke-linejoin:round;stroke:rgb(100%,64.7%,0%);stroke-opacity:1;stroke-miterlimit:10;" d="M 128 352 L 135 349.667969 L 135 354.332031 Z M 128 352 " transform="matrix(1,0,0,-1,-92,612)"/>
<path style="fill:none;stroke-width:2;stroke-linecap:butt;stroke-linejoin:round;stroke:rgb(100%,64.7%,0%);stroke-opacity:1;stroke-miterlimit:10;" d="M 352 576 L 352 384 " transform="matrix(1,0,0,-1,-92,612)"/>
<path style="fill-rule:evenodd;fill:rgb(100%,64.7%,0%);fill-opacity:1;stroke-width:2;stroke-linecap:butt;stroke-linejoin:round;stroke:rgb(100%,64.7%,0%);stroke-opacity:1;stroke-miterlimit:10;" d="M 352 384 L 354.332031 391 L 349.667969 391 Z M 352 384 " transform="matrix(1,0,0,-1,-92,612)"/>
<path style="fill:none;stroke-width:2;stroke-linecap:butt;stroke-linejoin:round;stroke:rgb(100%,64.7%,0%);stroke-opacity:1;stroke-miterlimit:10;" d="M 352 384 C 352 320 384 288 448 288 " transform="matrix(1,0,0,-1,-92,612)"/>
<path style="fill-rule:evenodd;fill:rgb(100%,64.7%,0%);fill-opacity:1;stroke-width:2;stroke-linecap:butt;stroke-linejoin:round;stroke:rgb(100%,64.7%,0%);stroke-opacity:1;stroke-miterlimit:10;" d="M 448 288 L 441 290.332031 L 441 285.667969 Z M 448 288 " transform="matrix(1,0,0,-1,-92,612)"/>
<path style="fill:none;stroke-width:2;stroke-linecap:butt;stroke-linejoin:round;stroke:rgb(100%,64.7%,0%);stroke-opacity:1;stroke-miterlimit:10;" d="M 448 288 L 576 288 " transform="matrix(1,0,0,-1,-92,612)"/>
<path style="fill-rule:evenodd;fill:rgb(100%,64.7%,0%);fill-opacity:1;stroke-width:2;stroke-linecap:butt;stroke-linejoin:round;stroke:rgb(100%,64.7%,0%);stroke-opacity:1;stroke-miterlimit:10;" d="M 576 288 L 569 290.332031 L 569 285.667969 Z M 576 288 " transform="matrix(1,0,0,-1,-92,612)"/>
</g>
</svg>
