<?xml version="1.0" encoding="UTF-8"?>
<svg xmlns="http://www.w3.org/2000/svg" xmlns:xlink="http://www.w3.org/1999/xlink" width="387pt" height="515pt" viewBox="0 0 387 515" version="1.1">
<g id="surface2525">
<path style="fill:none;stroke-width:2;stroke-linecap:butt;stroke-linejoin:round;stroke:rgb(0%,0%,0%);stroke-opacity:1;stroke-miterlimit:10;" d="M 192 768 L 192 640 " transform="matrix(1,0,0,-1,-63,769)"/>
<path style="fill:none;stroke-width:2;stroke-linecap:butt;stroke-linejoin:round;stroke:rgb(0%,0%,0%);stroke-opacity:1;stroke-miterlimit:10;" d="M 192 384 L 192 256 " transform="matrix(1,0,0,-1,-63,769)"/>
<path style="fill:none;stroke-width:2;stroke-linecap:butt;stroke-linejoin:round;stroke:rgb(0%,0%,0%);stroke-opacity:1;stroke-miterlimit:10;" d="M 64 384 L 64 256 " transform="matrix(1,0,0,-1,-63,769)"/>
<path style="fill:none;stroke-width:2;stroke-linecap:butt;stroke-linejoin:round;stroke:rgb(0%,0%,0%);stroke-opacity:1;stroke-miterlimit:10;" d="M 64 768 L 64 640 " transform="matrix(1,0,0,-1,-63,769)"/>
<path style="fill:none;stroke-width:2;stroke-linecap:butt;stroke-linejoin:round;stroke:rgb(82.7%,82.7%,82.7%);stroke-opacity:1;stroke-dasharray:4;stroke-miterlimit:10;" d="M 96 256 L 96 768 " transform="matrix(1,0,0,-1,-63,769)"/>
<path style="fill-rule:evenodd;fill:rgb(82.7%,82.7%,82.7%);fill-opacity:1;stroke-width:2;stroke-linecap:butt;stroke-linejoin:round;stroke:rgb(82.7%,82.7%,82.7%);stroke-opacity:1;stroke-miterlimit:10;" d="M 96 768 L 93.667969 761 L 98.332031 761 Z M 96 768 " transform="matrix(1,0,0,-1,-63,769)"/>
<path style="fill:none;stroke-width:2;stroke-linecap:butt;stroke-linejoin:round;stroke:rgb(82.7%,82.7%,82.7%);stroke-opacity:1;stroke-dasharray:4;stroke-miterlimit:10;" d="M 160 256 L 160 768 " transform="matrix(1,0,0,-1,-63,769)"/>
<path style="fill-rule:evenodd;fill:rgb(82.7%,82.7%,82.7%);fill-opacity:1;stroke-width:2;stroke-linecap:butt;stroke-linejoin:round;stroke:rgb(82.7%,82.7%,82.7%);stroke-opacity:1;stroke-miterlimit:10;" d="M 160 768 L 157.667969 761 L 162.332031 761 Z M 160 768 " transform="matrix(1,0,0,-1,-63,769)"/>
<path style="fill:none;stroke-width:2;stroke-linecap:butt;stroke-linejoin:round;stroke:rgb(0%,0%,100%);stroke-opacity:1;stroke-dasharray:4;stroke-miterlimit:10;" d="M 160 384 C 160 368 144 360 130.667969 353.332031 C 117.332031 346.667969 106.667969 341.332031 101.332031 334.667969 C 96 328 96 320 96 320 " transform="matrix(1,0,0,-1,-63,769)"/>
<path style="fill-rule:evenodd;fill:rgb(0%,0%,100%);fill-opacity:1;stroke-width:2;stroke-linecap:butt;stroke-linejoin:round;stroke:rgb(0%,0%,100%);stroke-opacity:1;stroke-miterlimit:10;" d="M 160 384 L 157.667969 377 L 162.332031 377 Z M 160 384 " transform="matrix(1,0,0,-1,-63,769)"/>
<path style="fill-rule:evenodd;fill:rgb(100%,100%,100%);fill-opacity:1;stroke-width:2;stroke-linecap:butt;stroke-linejoin:round;stroke:rgb(0%,0%,100%);stroke-opacity:1;stroke-miterlimit:10;" d="M 80 320 L 80 272 L 112 272 L 112 320 Z M 80 320 " transform="matrix(1,0,0,-1,-63,769)"/>
<path style="fill:none;stroke-width:2;stroke-linecap:butt;stroke-linejoin:round;stroke:rgb(82.7%,82.7%,82.7%);stroke-opacity:1;stroke-dasharray:4;stroke-miterlimit:10;" d="M 64 480 L 192 480 " transform="matrix(1,0,0,-1,-63,769)"/>
<path style="fill:none;stroke-width:2;stroke-linecap:butt;stroke-linejoin:round;stroke:rgb(82.7%,82.7%,82.7%);stroke-opacity:1;stroke-dasharray:4;stroke-miterlimit:10;" d="M 64 416 L 192 416 " transform="matrix(1,0,0,-1,-63,769)"/>
<path style="fill:none;stroke-width:2;stroke-linecap:butt;stroke-linejoin:round;stroke:rgb(0%,0%,100%);stroke-opacity:1;stroke-dasharray:4;stroke-miterlimit:10;" d="M 160 384 C 160 405.332031 170.667969 416 192 416 " transform="matrix(1,0,0,-1,-63,769)"/>
<path style="fill-rule:evenodd;fill:rgb(0%,0%,100%);fill-opacity:1;stroke-width:2;stroke-linecap:butt;stroke-linejoin:round;stroke:rgb(0%,0%,100%);stroke-opacity:1;stroke-miterlimit:10;" d="M 192 416 L 185 418.332031 L 185 413.667969 Z M 192 416 " transform="matrix(1,0,0,-1,-63,769)"/>
<path style="fill:none;stroke-width:2;stroke-linecap:butt;stroke-linejoin:round;stroke:rgb(0%,0%,0%);stroke-opacity:1;stroke-miterlimit:10;" d="M 192 384 L 448 384 " transform="matrix(1,0,0,-1,-63,769)"/>
<path style="fill:none;stroke-width:2;stroke-linecap:butt;stroke-linejoin:round;stroke:rgb(0%,0%,0%);stroke-opacity:1;stroke-miterlimit:10;" d="M 192 512 L 448 512 " transform="matrix(1,0,0,-1,-63,769)"/>
<path style="fill:none;stroke-width:2;stroke-linecap:butt;stroke-linejoin:round;stroke:rgb(82.7%,82.7%,82.7%);stroke-opacity:1;stroke-dasharray:4;stroke-miterlimit:10;" d="M 192 480 L 448 480 " transform="matrix(1,0,0,-1,-63,769)"/>
<path style="fill-rule:evenodd;fill:rgb(82.7%,82.7%,82.7%);fill-opacity:1;stroke-width:2;stroke-linecap:butt;stroke-linejoin:round;stroke:rgb(82.7%,82.7%,82.7%);stroke-opacity:1;stroke-miterlimit:10;" d="M 448 480 L 441 482.332031 L 441 477.667969 Z M 448 480 " transform="matrix(1,0,0,-1,-63,769)"/>
<path style="fill:none;stroke-width:2;stroke-linecap:butt;stroke-linejoin:round;stroke:rgb(82.7%,82.7%,82.7%);stroke-opacity:1;stroke-dasharray:4;stroke-miterlimit:10;" d="M 448 544 L 64 544 " transform="matrix(1,0,0,-1,-63,769)"/>
<path style="fill-rule:evenodd;fill:rgb(82.7%,82.7%,82.7%);fill-opacity:1;stroke-width:2;stroke-linecap:butt;stroke-linejoin:round;stroke:rgb(82.7%,82.7%,82.7%);stroke-opacity:1;stroke-miterlimit:10;" d="M 64 544 L 71 541.667969 L 71 546.332031 Z M 64 544 " transform="matrix(1,0,0,-1,-63,769)"/>
<path style="fill:none;stroke-width:2;stroke-linecap:butt;stroke-linejoin:round;stroke:rgb(82.7%,82.7%,82.7%);stroke-opacity:1;stroke-dasharray:4;stroke-miterlimit:10;" d="M 448 608 L 64 608 " transform="matrix(1,0,0,-1,-63,769)"/>
<path style="fill-rule:evenodd;fill:rgb(82.7%,82.7%,82.7%);fill-opacity:1;stroke-width:2;stroke-linecap:butt;stroke-linejoin:round;stroke:rgb(82.7%,82.7%,82.7%);stroke-opacity:1;stroke-miterlimit:10;" d="M 64 608 L 71 605.667969 L 71 610.332031 Z M 64 608 " transform="matrix(1,0,0,-1,-63,769)"/>
<path style="fill:none;stroke-width:2;stroke-linecap:butt;stroke-linejoin:round;stroke:rgb(0%,0%,100%);stroke-opacity:1;stroke-dasharray:4;stroke-miterlimit:10;" d="M 192 416 L 448 416 " transform="matrix(1,0,0,-1,-63,769)"/>
<path style="fill-rule:evenodd;fill:rgb(0%,0%,100%);fill-opacity:1;stroke-width:2;stroke-linecap:butt;stroke-linejoin:round;stroke:rgb(0%,0%,100%);stroke-opacity:1;stroke-miterlimit:10;" d="M 448 416 L 441 418.332031 L 441 413.667969 Z M 448 416 " transform="matrix(1,0,0,-1,-63,769)"/>
<path style="fill:none;stroke-width:2;stroke-linecap:butt;stroke-linejoin:round;stroke:rgb(0%,0%,0%);stroke-opacity:1;stroke-miterlimit:10;" d="M 192 640 L 448 640 " transform="matrix(1,0,0,-1,-63,769)"/>
</g>
</svg>
